<?xml version="1.0" encoding="UTF-8" standalone="no"?>
<!-- Generator: Adobe Illustrator 15.0.2, SVG Export Plug-In . SVG Version: 6.00 Build 0)  -->

<svg
   xmlns:dc="http://purl.org/dc/elements/1.1/"
   xmlns:cc="http://creativecommons.org/ns#"
   xmlns:rdf="http://www.w3.org/1999/02/22-rdf-syntax-ns#"
   xmlns:svg="http://www.w3.org/2000/svg"
   xmlns="http://www.w3.org/2000/svg"
   xmlns:sodipodi="http://sodipodi.sourceforge.net/DTD/sodipodi-0.dtd"
   xmlns:inkscape="http://www.inkscape.org/namespaces/inkscape"
   version="1.1"
   id="Ebene_1"
   x="0px"
   y="0px"
   width="200px"
   height="90px"
   viewBox="0 0 200 90"
   enable-background="new 0 0 200 90"
   xml:space="preserve"
   inkscape:version="0.48.1 r9760"
   sodipodi:docname="rwx3.svg"
   inkscape:export-filename="36.png"
   inkscape:export-xdpi="16.200001"
   inkscape:export-ydpi="16.200001"><metadata
   id="metadata167"><rdf:RDF><cc:Work
       rdf:about=""><dc:format>image/svg+xml</dc:format><dc:type
         rdf:resource="http://purl.org/dc/dcmitype/StillImage" /><dc:title></dc:title></cc:Work></rdf:RDF></metadata><defs
   id="defs165" /><sodipodi:namedview
   pagecolor="#ffffff"
   bordercolor="#666666"
   borderopacity="1"
   objecttolerance="10"
   gridtolerance="10"
   guidetolerance="10"
   inkscape:pageopacity="0"
   inkscape:pageshadow="2"
   inkscape:window-width="1024"
   inkscape:window-height="707"
   id="namedview163"
   showgrid="false"
   inkscape:zoom="2.495"
   inkscape:cx="100"
   inkscape:cy="45"
   inkscape:window-x="0"
   inkscape:window-y="26"
   inkscape:window-maximized="1"
   inkscape:current-layer="Ebene_1" />
<g
   id="g3">
	<g
   id="g5">
		<g
   enable-background="new    "
   id="g7">
			<g
   id="g9">
				<polygon
   points="176.852,52.175 152.591,39.979 152.711,29.789 176.971,41.984     "
   id="polygon11"
   fill="#848484" />
			</g>
			<g
   id="g13">
				<polygon
   points="177.091,31.794 152.83,19.599 162.101,18.296 186.36,30.491     "
   id="polygon15"
   fill="#B4B4B4" />
			</g>
			<g
   id="g17">
				<polygon
   points="158.206,64.969 133.946,52.773 134.065,42.583 158.326,54.778     "
   id="polygon19"
   fill="#848484" />
			</g>
			<g
   id="g21">
				<polygon
   points="158.326,54.778 134.065,42.583 152.591,39.979 176.852,52.175     "
   id="polygon23"
   fill="#B4B4B4" />
			</g>
			<g
   id="g25">
				<polygon
   points="167.708,43.286 143.447,31.091 143.567,20.901 167.827,33.096     "
   id="polygon27"
   fill="#848484" />
			</g>
			<g
   id="g29">
				<polygon
   points="158.685,24.207 134.425,12.012 152.95,9.408 177.21,21.604     "
   id="polygon31"
   fill="#B4B4B4" />
			</g>
			<g
   id="g33">
				<polygon
   points="158.565,34.398 134.305,22.203 134.425,12.012 158.685,24.207     "
   id="polygon35"
   fill="#848484" />
			</g>
			<g
   id="g37">
				<polygon
   points="177.21,21.604 177.091,31.794 186.36,30.491 186.002,61.062 158.206,64.969 158.326,54.778       176.852,52.175 176.971,41.984 167.708,43.286 167.827,33.096 158.565,34.398 158.685,24.207     "
   id="polygon39"
   fill="#DFDFDF" />
			</g>
		</g>
		<g
   enable-background="new    "
   id="g41">
			<g
   id="g43">
				<polygon
   points="148.943,66.271 139.682,67.572 139.801,57.382 149.063,56.08     "
   id="polygon45"
   fill="#244287" />
			</g>
			<g
   id="g47">
				<polygon
   points="139.682,67.572 115.421,55.377 115.541,45.187 139.801,57.382     "
   id="polygon49"
   fill="#152750" />
			</g>
			<g
   id="g51">
				<polygon
   points="139.801,57.382 115.541,45.187 124.804,43.885 149.063,56.08     "
   id="polygon53"
   fill="#1D356D" />
			</g>
		</g>
		<g
   enable-background="new    "
   id="g55">
			<g
   id="g57">
				<polygon
   points="149.303,35.7 149.183,45.89 139.921,47.191 140.04,37.001     "
   id="polygon59"
   fill="#244287" />
			</g>
			<g
   id="g61">
				<polygon
   points="139.921,47.191 115.661,34.997 115.78,24.807 140.04,37.001     "
   id="polygon63"
   fill="#152750" />
			</g>
			<g
   id="g65">
				<polygon
   points="140.04,37.001 115.78,24.807 125.043,23.505 149.303,35.7     "
   id="polygon67"
   fill="#1D356D" />
			</g>
		</g>
		<g
   enable-background="new    "
   id="g69">
			<g
   id="g71">
				<polygon
   points="130.658,48.494 139.921,47.191 139.801,57.382 130.539,58.684     "
   id="polygon73"
   fill="#244287" />
			</g>
			<g
   id="g75">
				<polygon
   points="130.658,48.494 106.398,36.299 115.661,34.997 139.921,47.191     "
   id="polygon77"
   fill="#1D356D" />
			</g>
			<g
   id="g79">
				<polygon
   points="130.539,58.684 106.278,46.489 106.398,36.299 130.658,48.494     "
   id="polygon81"
   fill="#152750" />
			</g>
		</g>
		<g
   enable-background="new    "
   id="g83">
			<g
   id="g85">
				<polygon
   points="121.156,70.176 121.275,59.986 130.539,58.684 130.419,68.874     "
   id="polygon87"
   fill="#244287" />
			</g>
			<g
   id="g89">
				<polygon
   points="121.156,70.176 96.896,57.981 97.016,47.791 121.275,59.986     "
   id="polygon91"
   fill="#152750" />
			</g>
			<g
   id="g93">
				<polygon
   points="121.275,59.986 97.016,47.791 106.278,46.489 130.539,58.684     "
   id="polygon95"
   fill="#1D356D" />
			</g>
		</g>
		<g
   enable-background="new    "
   id="g97">
			<g
   id="g99">
				<polygon
   points="121.515,39.605 130.778,38.303 130.658,48.494 121.396,49.796     "
   id="polygon101"
   fill="#244287" />
			</g>
			<g
   id="g103">
				<polygon
   points="121.515,39.605 97.255,27.41 106.519,26.108 130.778,38.303     "
   id="polygon105"
   fill="#1D356D" />
			</g>
			<g
   id="g107">
				<polygon
   points="121.396,49.796 97.135,37.601 97.255,27.41 121.515,39.605     "
   id="polygon109"
   fill="#152750" />
			</g>
		</g>
		<g
   enable-background="new    "
   id="g111">
			<g
   id="g113">
				<polygon
   points="93.48,63.893 69.221,51.697 78.491,50.395 102.751,62.59     "
   id="polygon115"
   fill="#487E20" />
			</g>
			<g
   id="g117">
				<polygon
   points="102.99,42.209 78.73,30.014 87.993,28.712 112.253,40.907     "
   id="polygon119"
   fill="#487E20" />
			</g>
			<g
   id="g121">
				<polygon
   points="102.751,62.59 78.491,50.395 78.73,30.014 102.99,42.209     "
   id="polygon123"
   fill="#355C18" />
			</g>
			<g
   id="g125">
				<polygon
   points="74.956,66.496 50.695,54.302 59.958,53 84.218,65.194     "
   id="polygon127"
   fill="#487E20" />
			</g>
			<g
   id="g129">
				<polygon
   points="84.218,65.194 59.958,53 60.197,32.619 84.457,44.814     "
   id="polygon131"
   fill="#355C18" />
			</g>
			<g
   id="g133">
				<polygon
   points="84.457,44.814 60.197,32.619 69.46,31.317 93.72,43.512     "
   id="polygon135"
   fill="#487E20" />
			</g>
			<g
   id="g137">
				<polygon
   points="112.253,40.907 111.894,71.478 65.573,77.988 65.932,47.418 75.195,46.116 74.956,66.496       84.218,65.194 84.457,44.814 93.72,43.512 93.48,63.893 102.751,62.59 102.99,42.209     "
   id="polygon139"
   fill="#599C28" />
			</g>
			<g
   id="g141">
				<polygon
   points="65.932,47.418 41.672,35.223 50.935,33.921 75.195,46.116     "
   id="polygon143"
   fill="#487E20" />
			</g>
			<g
   id="g145">
				<polygon
   points="65.573,77.988 41.313,65.794 41.672,35.223 65.932,47.418     "
   id="polygon147"
   fill="#355C18" />
			</g>
		</g>
		<g
   enable-background="new    "
   id="g149">
			<g
   id="g151">
				<polygon
   points="56.67,48.72 56.55,58.91 47.287,60.212 47.048,80.592 37.786,81.895 38.145,51.323     "
   id="polygon153"
   fill="#C81F1C" />
			</g>
			<g
   id="g155">
				<polygon
   points="37.786,81.895 13.525,69.699 13.885,39.128 38.145,51.323     "
   id="polygon157"
   fill="#761211" />
			</g>
			<g
   id="g159">
				<polygon
   points="38.145,51.323 13.885,39.128 32.41,36.524 56.67,48.72     "
   id="polygon161"
   fill="#A11917" />
			</g>
		</g>
	</g>
</g>
</svg>